<?xml version="1.0" standalone="no"?>
<!DOCTYPE svg PUBLIC "-//W3C//DTD SVG 20010904//EN"
 "http://www.w3.org/TR/2001/REC-SVG-20010904/DTD/svg10.dtd">
<svg version="1.0" xmlns="http://www.w3.org/2000/svg"
 width="700.000000pt" height="700.000000pt" viewBox="0 0 700.000000 700.000000"
 preserveAspectRatio="xMidYMid meet">
<metadata>
Created by potrace 1.14, written by Peter Selinger 2001-2017
</metadata>
<g transform="translate(0.000000,700.000000) scale(0.100000,-0.100000)"
fill="#000000" stroke="none">
<path d="M1397 6408 c-76 -16 -160 -76 -192 -138 -7 -14 -59 -141 -115 -281
-55 -140 -105 -263 -110 -274 -5 -11 -41 -101 -80 -200 -39 -99 -75 -189 -80
-200 -47 -101 -213 -538 -216 -567 -2 -20 -8 -47 -13 -60 -4 -12 -7 -34 -6
-48 2 -14 6 -57 9 -96 15 -163 97 -379 203 -531 64 -92 191 -217 289 -286 l81
-56 -1 -1408 c-1 -997 2 -1421 10 -1453 23 -94 75 -157 164 -199 l55 -26 2105
0 2105 0 55 26 c91 44 149 115 166 204 4 22 8 672 8 1444 l1 1404 62 41 c254
169 451 467 499 756 3 14 7 37 10 52 3 15 7 78 9 140 l4 113 -80 205 c-45 113
-90 224 -100 247 -10 24 -19 49 -19 56 0 7 -4 17 -8 23 -5 5 -42 92 -81 194
-40 102 -79 199 -86 215 -7 17 -43 107 -80 200 -37 94 -73 184 -80 200 -7 17
-27 64 -44 106 -36 86 -88 145 -159 181 l-47 23 -2100 0 c-1155 1 -2117 -2
-2138 -7z m3969 -634 c13 -32 28 -68 33 -79 11 -22 171 -419 251 -620 29 -71
60 -149 71 -172 10 -23 19 -48 19 -55 0 -8 4 -18 8 -24 5 -5 15 -25 22 -44 16
-44 39 -98 52 -127 32 -67 -38 -262 -132 -369 -105 -120 -257 -192 -417 -198
-168 -7 -311 51 -432 173 -113 113 -164 231 -175 399 -6 99 -30 158 -86 213
-88 87 -222 110 -332 56 -102 -50 -156 -135 -164 -260 -12 -181 -58 -290 -174
-408 -86 -88 -184 -141 -300 -163 -75 -15 -188 -12 -253 4 -79 21 -186 80
-246 136 -126 117 -182 241 -196 438 -7 86 -31 142 -85 196 -60 60 -119 84
-205 85 -57 0 -81 -6 -127 -28 -104 -51 -156 -135 -163 -265 -7 -119 -14 -158
-44 -231 -72 -177 -218 -304 -405 -352 -82 -21 -223 -19 -299 5 -221 70 -391
269 -413 484 -6 53 -2 68 55 212 34 85 68 169 76 185 7 17 50 122 95 235 45
113 88 219 95 235 8 17 46 111 86 210 40 99 76 182 80 185 4 3 834 5 1844 4
l1837 -1 24 -59z m-2516 -2066 c204 -136 420 -200 660 -197 304 4 569 110 790
316 l75 70 84 -79 c97 -90 172 -143 286 -198 147 -72 323 -116 473 -119 l32
-1 0 -1165 c0 -1102 -1 -1165 -17 -1166 -10 0 -207 -2 -438 -2 l-420 -2 0 760
-1 760 -26 58 c-31 67 -79 116 -146 148 l-47 23 -630 1 c-442 1 -645 -2 -680
-10 -88 -20 -151 -74 -194 -165 l-25 -55 -1 -757 c0 -665 -2 -757 -15 -760
-13 -3 -809 -2 -847 1 -10 1 -13 241 -13 1166 l0 1165 38 1 c68 2 105 7 242
34 79 15 231 81 330 143 89 55 103 67 194 154 l70 66 76 -70 c41 -39 109 -93
150 -120z m938 -1957 l-3 -585 -285 1 -285 0 -3 574 c-1 316 0 579 2 584 2 6
108 10 290 10 l286 0 -2 -584z"/>
</g>
</svg>
